<svg id="Layer_1" data-name="Layer 1" xmlns="http://www.w3.org/2000/svg" viewBox="0 0 362.68 111.92"><defs><style>.cls-1{fill:#efefef;}</style></defs><title>thicklogo</title><path class="cls-1" d="M127.51,61.5H113.89V96.8H92V61.5H78.48V47.2h49V61.5Z" transform="translate(-34.66 -16.04)"/><path class="cls-1" d="M185.55,96.8H164.38V77.08h-9.13V96.8H134.78V47.2h20.47V66.29h9.13V47.2h21.16V96.8Z" transform="translate(-34.66 -16.04)"/><path class="cls-1" d="M217.93,47.2V96.8H195.38V47.2h22.55Z" transform="translate(-34.66 -16.04)"/><path class="cls-1" d="M278.66,66.11H257.82V57.3h-9.34V86.7h9.34V77.18h20.84v12.7l-9,6.92H236.9l-9.83-6.92V54.19l9.83-7h32.68l9.08,7V66.11Z" transform="translate(-34.66 -16.04)"/><path class="cls-1" d="M308,66.09h2.35L323.48,47.2h22.84L329,72.25,348.23,96.8H325.7L310.34,77.15H308V96.8H286.82V47.2H308V66.09Z" transform="translate(-34.66 -16.04)"/><path class="cls-1" d="M397.34,128H34.66V16H397.34V128ZM48.49,114.13h335V29.87h-335v84.26Z" transform="translate(-34.66 -16.04)"/></svg>
